<svg xmlns="http://www.w3.org/2000/svg" viewBox="0 0 340.16 340.16">

<style>.st17{display:inline}.st18,.st19{fill:none;stroke-miterlimit:10}.st18{stroke-width:.75;stroke:#e4007f}.st19{stroke:#d70051}
</style>

<g id="描边">

    <g id="衣服" class="st17">
        <path class="st18" d="M108.125 258.75a465.456 465.456 0 0 0 27.25 36.125c11.313 13.571 24.104 27.323 34.705 37.625M90 281.75A570.196 570.196 0 0 0 121.5 309c10.149 8.151 21.57 17.298 31.125 24M243 266c-9.978 10.035-26.346 25.897-37.625 36.25-11.067 10.158-24.64 21.316-35.295 30.25M266.614 278.249c-9.223 8.641-21.31 18.497-33.364 27.626-11.369 8.61-29.921 20.345-40.188 26.625M142.312 325.418v7.082M204.419 325.418v7.082M90 281.75c-3.321 5.535-7.077 12.887-9.875 22.625-3.068 10.681-3.265 21.817-3.25 28.625M84.125 303.875L85.5 332.5"/>
        <path class="st18" d="M85.5 290.123c1.257 3.178 4.1 13.477 5 17.252 3.082 12.926 1.99 17 2.99 25.125M266.614 278.249c2.235.924 4.757 2.282 7.886 5.501 2.509 2.58 4.57 5.825 6.375 11.125 4.543 13.339 4.466 33.095 4.394 37.625"/>
        <path class="st18" d="M259.813 314.313c2.276-3.214 5.018-9.459 7.021-16.313 1.971-6.743 2.216-14.764 2.047-18.669M266.614 332.5l-1.148-30.237M265.466 315.833l8.867 6.167-2.5 10.5M232.351 262.405c.847-.519 10.232-5.804 19.983-1.739 9.943 4.145 14.082 16.674 14.28 17.583"/>
        <path class="st18" d="M205.75 244.834c12.667 1 16.99 5.728 19.417 8.07 2.896 2.794 2.767 5.126 6 8.429 3.837 3.919 8.441 3.969 11.833 4.667M152.626 246.311l-18.793.522M205.75 244.834l-13.375.372M133.833 246.833c-3.362 3.97-5.543 6.54-6.5 7.667-3.876 4.566-5.855 6.848-7.833 6.833-2.658-.02-3.151-2.841-6.167-3.667-4.313-1.181-8.955 3.046-11.833 5.667-2.989 2.721-8.271 8.417-11.5 18.417"/>
    </g>
    
    <g id="头" class="st17">
        <path id="下巴" class="st18" d="M98.222 206.938c4.524 6.273 22.06 28.758 52.778 35.395 47.185 10.194 82.891-26.534 84.969-28.729"/>
        <path class="st19" d="M71 72.25C88.489 35.621 124.958 11.838 165 11c42.651-.893 82.142 24.399 99.75 64"/>
        <path class="st19" d="M73.642 67.078C64.75 72.25 47.747 96.868 42.75 114c-7.61 26.092-10.722 35.183-11.25 63.5-.591 31.72 5.822 57.883 9.083 78 2.883 17.782 5.694 43.58 4.417 76.125M264.75 75c2.723-.203 7.376-.149 12.25 2.167 2.463 1.17 5.977 3.39 10.833 10.167 2.108 2.941 6.731 9.506 9.667 19.167 12.344 40.624 11.512 100.833 11.512 100.833-.369 43.339-1.42 51.917-3.179 91.917-.879 19.981-.172 22.609.5 33.25M302 331.5l-17.477-93.621c-.69-4.212-3.748-7.062-4.023-11.129l-3.375-72.813"/>
        <path class="st19" d="M52 332c-.91-21.149 1.273-37.665 3.5-49 2.431-12.371 4.469-16.303 5.5-28.5 1.364-16.135.136-19.354 1.5-36.167 1.154-14.222 1.062-15.871 3.5-29.833 1.595-9.139-.269-45.474-2.56-61.807M70 91c-1.7 15.559-.48 41.896 3.5 64.813 3.625 20.875 19.944 63.496 31.281 81.063 3.344 6.667 4.594 9.958 4.969 21.792l-2.875 72.958"/>
        <path class="st19" d="M84.5 161.125A28.51 28.51 0 0 0 87.625 164c5.205 4.115 11.755 5.825 15.458 6.385M93 83c-2.517 10.089-2.23 27.615-1.292 46.625.836 16.92 7.158 32.043 11.375 40.76"/>
        <path class="st19" d="M94.063 167.833c0 10.083 1.612 20.899 2.994 30.021 1.696 11.195 2.791 31.024 8.577 40.751M71 72.25c-2.101 7.425-8.019 35.426-7.917 45 .24 22.432 4.287 34.389 9.417 49.083M72.405 166.31l3.041-1.667M109.362 251.964c-.327 3.277-2.999 19.144-4.362 25.369-2.653 12.117-5.653 17.385-8 26.333-1.535 5.855-3.137 17.236-3.51 28.833M246.833 51.333a200.66 200.66 0 0 1 12.333 40.333c5.463 28.212 3.245 50.146 1.5 67.667-3.619 36.327-13.142 61.701-16 69-.816 2.084-2.644 7.38-6 14-1.268 2.501-.786 13.604 1.146 24.75 2.409 13.895 4.058 22.012 4.813 26.167 1.616 8.893 3.133 23.135 2.375 39.25M264.75 75c1.917 5.229 1.497 17.94 3 28.75 1.299 9.346 2.662 13.87 3.5 19 1.478 9.049 1.984 21.605-4.23 39.465M267.02 162.215l10.105-8.277"/>
        <path class="st19" d="M241.833 236.083c-.147 6.85 1.588 24.999 4.333 37.25 1.939 8.654 6.25 15.917 8.083 23.489 1.753 7.241 8.376 22.011 6.583 35.678M238.667 163A353.22 353.22 0 0 0 236 200.167c-.274 14.539 1.315 38 2.193 43.988"/>
        <path class="st19" d="M244.5 160.5a23.166 23.166 0 0 1-7.667 3.833 23.293 23.293 0 0 1-10.5.5"/>
        <path class="st18" d="M226.333 164.833c9.083-6.757 11.115-31.411 11.629-39.896.704-11.625.933-40.5-1.629-54.938M91.094 101.186c.512 5.333 2.116 11.975 3.625 15.861 2.478 6.382 6.203 10.328 10.484 12.235M104.906 99.344c0 6.563 3.846 20.375 4.656 21.719 1.281 2.125 2.469 4.188 8.156 4.188"/>
        <path class="st18" d="M107.625 75.875A215.29 215.29 0 0 0 105 97.75c-.786 11.497-.496 22.369.203 31.531M130 40.5c-.999 13.478-.625 33.385-.313 41.813.438 11.813 1.438 20.016 3.688 25.688 3.911 9.859 13.264 16.157 18.5 19.042M149.75 96.042c-.047 4.258-.435 11.8-.021 16.771.471 5.652 1.253 9.569 2.146 14.229M149.75 96.042c.125.25 6.083 27.625 6.083 27.625M155.833 123.667c.9-.575 5.012-.641 7.341 0 4.359 1.201 6.187 3.986 6.326 4.25M169.5 127.917c-.967-5.751-2.432-17.829-2.285-25.5.26-13.585 3.017-24.868 5.75-33"/>
        <path class="st18" d="M167.657 112.813c1.869-2.171 5.681-7.246 7.343-12.813 2.308-7.733 1.021-14.308.25-17.25M185.875 83.25a107.35 107.35 0 0 1 0 20.75c-.996 10.258-3.762 19.269-6.063 25.792"/>
        <path class="st18" d="M175.25 82.75c2.311 6.125 2.496 20.164 3.375 25.375.292 1.729 1.554 14.642 1.188 21.667M205.5 58.167a28.862 28.862 0 0 1 4 8.167c.654 2.139.99 4.139 1.167 6.167.484 5.56.45 19.138-.333 37.167M186.377 100.333c.636 2.43 2.155 9.118 2.456 12.333.463 4.953.727 7.148.23 10.544M189.063 123.21c5.671-.008 10.399-.895 13.103-1.877 3.711-1.347 4.932-2.509 5.667-3.5 2.136-2.882 2.26-5.521 2.5-8.167M214.333 118a24.017 24.017 0 0 1 6.5 5.5c3.346 4.06 4.536 8.253 5 10.5M229.742 108.645c1.573 2.484 2.815 4.934 4.3 8.23 2.685 5.962 3.666 7.375 3.666 11.689"/>
        <path class="st18" d="M228.833 80a177.697 177.697 0 0 1 1 26.833c-.368 9.58-2.64 19.816-4 27.167M210.544 95.841c1.471 1.789 1.37 1.508 2.79 4.659 3.473 7.71 1.717 15.023 1 17.5M75.446 164.643c-2.946 1.69-3.018 1.596-3.808 4.607-1.333 5.083 2.139 14.5 4.034 17.367 3.53 5.342 6.208 8.499 11.049 12.19M260.667 159.333c2.833-.771 3.748-.054 5.493 1.918 2.903 3.28 3.559 17.468.674 24.749-4.155 10.486-9.839 13.81-13.336 15.488M117.719 125.25c-2.031-12.438-.719-33.563 3.615-42.5 3.306-6.818 4.572-8.629 8.018-12.024"/>
    </g>

    <g id="脖子" class="st17">
        <path class="st18" d="M143.667 258.333A481.666 481.666 0 0 0 155 293c5.07 13.728 10.922 28.017 16.313 39.5"/>
        <path class="st18" d="M207.375 266c-5.671 7.235-13.6 18.272-19.375 28.5-7.495 13.274-13.136 27.408-16.688 38M145.067 263.142l7.558-6.642v-13.834M204.071 270.179l-11.696-13.554v-16.181"/>
    </g>
</g>

</svg>