<?xml version="1.0" encoding="utf-8"?>
<!-- Generator: Adobe Illustrator 21.0.0, SVG Export Plug-In . SVG Version: 6.00 Build 0)  -->
<svg version="1.1" xmlns="http://www.w3.org/2000/svg" xmlns:xlink="http://www.w3.org/1999/xlink" x="0px" y="0px"
	 viewBox="0 0 600 600" style="enable-background:new 0 0 600 600;" xml:space="preserve">
<style type="text/css">
	.st0{display:none;}
	.st1{fill:none;stroke:#FBAE17;stroke-miterlimit:10;}
</style>
<g id="图层_1" class="st0">
	
		<image style="display:inline;overflow:visible;" width="700" height="700" xlink:href="../../../`del/Love-yourself-lion__700.jpg"  transform="matrix(1 0 0 1 -57 -57)">
	</image>
</g>
<g id="一笔画">
	<path id="一笔画_1_" class="st1" d="M203.5,379.5c-6.26,19.84-9.45,36.5-10,48c-1,21-2,68,7,92c5.31,14.16,6.04,29.72,11,44
		c1.02,2.94,3.22,8.58,1,14c-1.01,2.46-2.28,3.31-2,5c0.62,3.73,7.96,6.51,14,6c7.22-0.61,14.18-5,15-9c8-39,9.21-59.37,31-63
		c11-1.83,23.22,12.43,25,24c2,13,2.57,19.87,5,32c2,10,13,16,27,14c2.29-0.33,6-4,3-8c0,0,0-12,1-16c2.44-9.75,9-42,10-55
		c-0.66-0.23-2-0.65-2,0c0,4,9,22,21,38c7,10,14.3,15.53,27,24c0.77,2.07,1.01,8,5,8c6,0,12.55,8.89,14,6c2-4-2-7-2-10s-10-7-14-8
		c-4,0-15.64-10.53-27-26c-7.88-10.73-17.16-28.97-19-40c-1-6,0.95-12.52,3-33c2-20-1-72-6-80c-1.76-2.82-3.7-6.13-10-9
		c-7,0-23,1-42,3c-22.24,2.34-39.81,0.23-51-2c-3.08-0.61-28.47-6.47-33-11c-2-2-9-2-9-7c0-3,6-1.26,6-3c0-3-9.24-1.05-8-6
		c1-4,6.2-0.2,8-2c2-2-4-6-2-9c0.99-1.49,5.27,1.6,14,3c3.84,0.62,5.98,0.51,8,0c1.22-0.31,6.53-1.66,7-5c0.26-1.82-0.94-4-2-4
		c-5,0-1.66,4.68-5,11c-1.83,3.46-5.82,9.69-8,9c-1.52-0.48-1.91-4.09-1-5c2-2,4.35,3.79,10,4c1.14,0.04,2.5-0.49,3-2c1-3,1-3,3-5
		c1-1,3.84-0.37,5,1c1.13,1.35,0.51,3.79-1,5c-1.51,1.21-3.7,1.02-5,0c-2.48-1.95-0.3-5.63,1-6c1.22-0.34,0.98,2.29,4,3
		c3.32,0.78,8-3,7-3c0,0-5,8-4,9s5.25-1.37,7-4c2-3,2-4,2-4c0-2-1.12,4,3,4c5,0,7,0,8-1c1.16-1.16-1.71-4.11-5-3
		c-3,1.01-2.95,6.21-1,8c1.79,1.65,4.96,0.66,7,0c8.77-2.85,14-10,14-10c1-3-5.53,8.74-3,10c4,2,8-10,7-8c0,0-3,12-5,16
		c-1.26,2.53-4.38,0.13-4-1c0.9-2.71,10-5.45,10-9c0-1,0-2,1-4c0,0,0.7-1.6,2-2c1.47-0.45,3.33,0.42,4,2c0.63,1.48,0.01,3.14-1,4
		c-1.71,1.47-4,1-5,0s-1-3,0-4c1,1,1,1,3,1c4,0,6-4,6-4c-1-1-2,8,0,8c5,0,4-7,4-8c0,0,0.29,6.29,1,7c1,1,3.69,0.62,4,0
		c1-2,0-10.75,0-9c0,2,2.9,1.32,5,1c0.69-0.11,1.18-0.38,1.47-0.55c1.85-1.06,3.19-3.5,2.53-4.45c-0.5-0.72-2.29-0.8-3,0
		c-0.5,0.56-0.38,1.46,1,6c1.11,3.65,1.46,4.46,1,5c-1.02,1.21-5-0.09-5-1c0-1.03,4.22-0.22,8-4c2-2,4-3.76,4-5c0-1-3.11-1.36-4,0
		c-1.29,1.97,0.86,5.73,3,6c2.47,0.31,4.56-4.08,5-5c2.65-5.56,0.48-12,0-12c-3,0-2,14,2,14c3,0,3-6,4-8c2.24-4.47,2-11,0-11
		c-3,0-2.26,5.24-1,10c1.33,5.02,4.89,7.05,4,9c-0.52,1.15-2.94,1.06-4,0c-1-1-1-7,1-8c6.41-3.2,9.14-5.61,12-8
		c3.04-2.53,3.63-4.58,6-5c2.75-0.48,3.97,2.31,7,2c3.65-0.37,6.71-4.93,6-6c-0.62-0.93-4.7-0.11-7,2c-4.72,4.33-4.29,16.19,1,22
		c10,11,43,12,55-8c0.93-1.56,5-12,3-18c-1.92-5.77-12.23-8.07-13-5c-1,4,8,5,13,5c7,0,36.02-5.06,44-29c7-21,2.29-30.22-6-41
		c-10-13-31.37-11.97-32-5c-0.15,1.7,0.14,3.06,0.82,4.15c4.26,6.87,20.86,5.26,31.18,0.85c11.93-5.09,25.7-18.3,26-37
		c0.27-16.92-10.54-35.31-28-39c-18.54-3.92-41.25,8.88-36,15c6,7,26-2,36-15c9.69-12.6,22-36,5-57c-16.94-20.92-34.09-19.35-54-12
		c-13.29,4.9-24.53,15.61-20,19c4,3,15.64-5.93,20-19c7-21,10-43-6-57c-13.31-11.65-29.19-5.62-40,3c-11.78,9.39-20,25-13,28
		c5.81,2.49,14.09-13.84,13-28c-1-13-8.75-31.59-27-32c-14.96-0.34-28.93,13.62-31,25c-2,11,0,34,9,30c6.13-2.72-0.65-19.45-9-30
		c-19-24-47.58-32.14-78-22c-24,8-34,26-27,59c5.21,24.54,31.27,44.17,37,35c5-8-18-32-37-35c-23.01-3.63-61.35,6.96-69,35
		c-3,11,3.55,29.82,22,43c21,15,46.96,16.67,50,3c2-9-23-20-50-3c-21.36,13.45-31.78,31.97-29,57c2,18,14.62,31.29,35,37
		c25,7,38.64-4.96,38-12c-1-11-26-7-38,12c-10.81,17.11-15.72,46.04,1,61c19,17,47.31,7.31,56-7c3.78-6.23,4-16,1-16
		c-4.12,0-7.4,11.2-1,16c19.08,14.31,70.68,21.71,108,12c11.67-3.03,22-10,22-13c0-11.05,0.9-16.69,8-35
		c0.23-0.6,3.87-9.74,11.88-18.45c2.77-3.01,4.72-4.52,7.12-5.55c7.02-3.01,15.03-0.7,15,0c-0.03,0.7-8.22,2.61-15,0
		c-10.04-3.87-15.6-17.1-16-28c-0.38-10.37,3.73-24.05,13-28c6.34-2.7,14.01-0.39,14,0c-0.01,0.38-7.19,1.62-14,0
		c-15.62-3.72-25.5-21.67-26-33c-0.17-3.89,0.69-7.39,0.69-7.39c1.22-4.98,3.63-8.15,6.31-11.61c2.97-3.83,6.51-8.4,9.78-7.72
		c0.28,0.06,1.05,0.22,1.22,0.72c0.51,1.56-5.09,5.62-11,7c-2.87,0.67-5.89,0.33-11.92-0.34c-5.17-0.58-9.07-1.04-14.08-2.66
		c-3.57-1.16-6.19-2-9.2-4.02c-1.96-1.31-8.83-5.91-9.8-12.98c-0.78-5.71,2.57-11.12,3-11c0.42,0.12,0.18,6.11-3,11
		c-4.38,6.74-12.45,8.52-14.98,9.09c-3.78,0.84-9.93,2.2-14.02-1.09c-4.58-3.68-4.79-11.74-4-12c0.76-0.25,5.05,6.01,4,12
		c-1,5.69-6.44,9.04-8,10c-8.04,4.95-16.92,2.61-19,2"/>
</g>
<g id="面部">
	<path id="左眼" class="st1" d="M211.5,215.5c-0.74,4.04,2.25,7.75,6,8c3.69,0.24,7.12-2.95,7-7"/>
	<path id="右眼" class="st1" d="M289.5,218.5c-0.12,3.96,2.56,7.33,6,8c4.05,0.79,8.43-2.29,9-7"/>
	<path id="鼻子和嘴" class="st1" d="M205.5,265.5c0.27,0.1,4.23,1.77,7-1c3-3,3-4.63,3-5c0-3,0-12,0-12s-11-5-10-9
		c0.96-3.85,22.65-4.7,24-2c2,4-14,11-14,11v12c1.59,4.76,2.89,7.56,5.11,9.15c3.16,2.26,6.61,1.99,8.89,1.85
		c5.93-0.36,10.14-3.44,12-5v-2c1-8.07,7.05-12.35,8-13c-0.95,0.65-7,4.93-8,13c-1.15,9.26,5.36,15.41,6,16"/>
	<path id="手" class="st1" d="M326.5,305.5c3-1,5.48-1.16,6,0c0.73,1.63-2.81,4.19-2,5c2,2,6-3,8-1s-5.51,6.5-4,8
		c1.1,1.09,4.88-1.98,6-1c0.81,0.71,1,3-2,7"/>
</g>
</svg>
