<?xml version="1.0" encoding="utf-8"?>
<!-- Generator: Adobe Illustrator 21.0.0, SVG Export Plug-In . SVG Version: 6.00 Build 0)  -->
<svg version="1.1" xmlns="http://www.w3.org/2000/svg" xmlns:xlink="http://www.w3.org/1999/xlink" x="0px" y="0px"
	 viewBox="0 0 600 600" style="enable-background:new 0 0 600 600;" xml:space="preserve">

<style type="text/css">
	.st1{display:inline;}
	.st2{fill:#29ABE2;}
	.st3{fill:#FFFC9D;}
	.st4{fill:#816124;}
	.st5{fill:#FB8D8C;}
</style>


<g id="图层_4">
	<g id="pikachu_身体">
		<path class="st3" d="M420.5,130.5c-13.63-8.28-44.43-24.36-86-24c-62.42,0.55-103.38,37.77-113,47l14-12
			c-22.82-0.79-55.13,0.23-87,6c-41.23,7.46-61.68,13.38-86,25c12.79,7.24,32.49,16.39,58,21c32.35,5.84,68.21-1.3,84-5
			c-4,14-10.35,37.83-12,56c-2,22,0,98-3,111C184.56,376.91,152,435,152,435l-40-44l-62,41L0.5,364.5v67l49,30l52-32l46,21
			c0,11.33-1.73,26.42,0,35c1.21,6.01,6.6,16.15,11,23c5.7,8.87,14.18,20.19,21,23c49.35,20.33,213.5,0,213.5,0s15.21-5.9,27.5-7
			c19.75-1.77,40.05,3.57,47,7c8.95-10.68,19.99-28.61,29-46c13.96-26.95,19.11-55.92,22-74c-7.8,4.46-19.51,12.71-30,24
			c-10.64,11.45-17.13,22.82-21,31l3-6l-9-141l-8,11c28-38,30-54.82,30-71c0-22-18-45-20-65c-0.27-2.75,1.15-9.52-1-18
			c-2.06-8.12-6.01-14.18-9-18l7,12c17.66-7.05,36.74-16.44,58-29c23.68-14,42.28-26.66,58-40c-26-3-73,2-93,4
			c-24.96,2.5-52.7,10.73-74,19L420.5,130.5z"/>
        <path class="st4" d="M422.01,127.91c-27.25-16.47-59.01-25.31-90.9-24.34c-32.01,0.97-63.17,11.81-89.52,29.85
            c-7.86,5.38-15.33,11.37-22.22,17.96c-2.82,2.7,1.34,6.73,4.24,4.24c4.67-4,9.33-8,14-12c2.08-1.78,0.3-5.04-2.12-5.12
            c-34.07-1.11-67.85,2.09-101.27,8.64c-25.35,4.97-49.86,11.66-73.24,22.77c-2.06,0.98-1.85,4.14,0,5.18
            c21.76,12.24,46.16,20.68,71.09,22.96c24.47,2.24,49.39-1.1,73.22-6.66c-1.23-1.23-2.46-2.46-3.69-3.69
            c-5.99,21.02-11.65,42.56-12.58,64.49c-0.77,18.05-0.56,36.16-0.67,54.22c-0.09,15.21,0.79,31.13-1.39,46.24
            c-0.87,6.06-3.42,11.96-5.76,17.57c-3.72,8.93-7.94,17.66-12.27,26.31c-6.23,12.46-12.73,24.8-19.54,36.95
            c1.57-0.2,3.14-0.4,4.71-0.61c-13.33-14.67-26.67-29.33-40-44c-0.85-0.93-2.57-1.17-3.64-0.47c-20.67,13.67-41.33,27.33-62,41
            c1.37,0.36,2.74,0.72,4.1,1.08c-16.5-22.5-33-45-49.5-67.5c-1.67-2.27-5.59-1.69-5.59,1.51c0,18.66,0,37.31,0,55.97
            c0,4.39-1.62,11.38,2.39,14.18c7.92,5.53,16.63,10.18,24.87,15.22c7.74,4.74,15.49,9.48,23.23,14.22c0.89,0.55,2.13,0.55,3.03,0
            c17.33-10.67,34.67-21.33,52-32c-1.01,0-2.02,0-3.03,0c15.33,7,30.67,14,46,21c-0.5-0.86-0.99-1.73-1.49-2.59
            c-0.06,9.75-1.19,19.54-0.65,29.29c0.44,7.97,3.41,14.9,7.15,21.87c6.88,12.8,16.39,28.89,30.81,33.91
            c21.39,7.45,45.77,7.69,68.16,7.93c45.91,0.5,92-3.15,137.6-8.36c5.74-0.66,10.39-2.36,16.02-4.03c11-3.27,21.93-4.54,33.4-3.62
            c9.61,0.77,20.19,2.42,29,6.6c1.12,0.53,2.75,0.6,3.64-0.47c14.58-17.64,26.78-38.71,35.58-59.8
            c8.22-19.69,12.82-40.52,16.19-61.53c0.4-2.47-1.96-4.8-4.41-3.39c-22.44,13-40.87,32.69-52.08,56.08
            c-1.65,3.45,3.44,6.5,5.18,3.03c1.31-2.61,3.24-5.31,3.36-8.25c0.1-2.43-0.32-5-0.47-7.42c-0.69-10.76-1.37-21.53-2.06-32.29
            c-1.72-27.02-3.45-54.05-5.17-81.07c-0.41-6.49-0.83-12.98-1.24-19.47c-0.2-3.1-3.84-3.92-5.59-1.51c-2.67,3.67-5.33,7.33-8,11
            c-2.28,3.13,2.92,6.11,5.18,3.03c13.28-18.12,27.11-38.35,29.83-61.24c1.22-10.27,0.38-20.34-2.85-30.21
            c-4.65-14.21-12.8-27.32-15.9-42.03c-1.4-6.66,0.02-13.44-1.21-20.17c-1.43-7.82-5.05-15.1-9.87-21.37
            c-2.27-2.97-7.19-0.42-5.18,3.03c2.33,4,4.67,8,7,12c0.61,1.04,2.18,1.87,3.39,1.38c21.55-8.66,42.14-19.38,62.06-31.29
            c19.28-11.53,38.06-23.98,55.26-38.48c2.21-1.86,0.18-4.87-2.12-5.12c-26.27-2.89-53.41,0.14-79.59,2.67
            c-13.56,1.31-27.01,2.8-40.33,5.77c-16.31,3.64-32.29,8.66-47.87,14.67c-2.25,0.87-3.17,4.15-0.72,5.48c3.67,2,7.33,4,11,6
            C422.38,134.94,425.41,129.76,422.01,127.91c-3.67-2-7.33-4-11-6c-0.24,1.83-0.48,3.66-0.72,5.48
            c15.58-6.01,31.56-11.04,47.87-14.67c13.2-2.94,26.51-4.38,39.94-5.67c25.8-2.47,52.51-5.39,78.39-2.55
            c-0.71-1.71-1.41-3.41-2.12-5.12c-16.8,14.17-35.21,26.27-54.04,37.54c-19.46,11.64-39.58,22.22-60.63,30.69
            c1.13,0.46,2.26,0.92,3.39,1.38c-2.33-4-4.67-8-7-12c-1.73,1.01-3.45,2.02-5.18,3.03c4.15,5.41,7.42,11.47,8.9,18.18
            c1.32,5.96,0.14,11.74,0.85,17.68c1.64,13.64,8.84,26.13,13.85,38.71c4.23,10.64,6.58,21.12,5.76,32.56
            c-0.55,7.66-2.53,15.11-5.45,22.21c-5.87,14.27-14.83,27.25-23.91,39.64c1.73,1.01,3.45,2.02,5.18,3.03c2.67-3.67,5.33-7.33,8-11
            c-1.86-0.5-3.73-1.01-5.59-1.51c2.73,42.81,5.47,85.63,8.2,128.44c0.22,3.51,0.45,7.03,0.67,10.54c0.04,0.64,0.11,1.29,0.12,1.93
            c0.02,0.58,0.19-0.92,0.35-1.29c-0.29,0.7-0.69,1.38-1.03,2.06c-0.63,1.27-1.27,2.53-1.9,3.8c1.73,1.01,3.45,2.02,5.18,3.03
            c10.79-22.52,28.31-41.4,49.92-53.92c-1.47-1.13-2.94-2.26-4.41-3.39c-3.18,19.81-7.42,39.48-14.83,58.19
            c-4.53,11.45-10.47,22.3-16.71,32.9c-5.63,9.56-11.61,19.03-18.69,27.59c1.21-0.16,2.42-0.31,3.64-0.47
            c-15.23-7.21-34.99-9.27-51.51-7.06c-7.68,1.03-15.22,3.18-22.52,5.74c-0.45,0.16-3.72,1.29-2.05,0.91
            c-0.37,0.08-0.77,0.09-1.14,0.14c-14.48,1.93-29.1,3.16-43.65,4.41c-26.17,2.25-52.41,3.91-78.68,4.36
            c-24.4,0.42-49.57,0.52-73.59-4.34c-4.83-0.98-9.79-2.11-14.37-4c-8.62-3.54-14.73-13.41-19.62-20.88
            c-4.94-7.54-10.67-16.4-11.8-25.52c-1.31-10.61,0.35-21.55,0.41-32.19c0.01-0.97-0.56-2.17-1.49-2.59
            c-14.74-6.73-29.46-13.49-44.22-20.19c-1.84-0.83-3.07-1.49-5.1-0.64c-2.19,0.92-4.3,2.64-6.31,3.88
            c-8.71,5.36-17.41,10.71-26.12,16.07c-6.43,3.96-12.86,7.91-19.29,11.87c1.01,0,2.02,0,3.03,0c-16.33-10-32.67-20-49-30
            c0.5,0.86,0.99,1.73,1.49,2.59c0-22.33,0-44.67,0-67c-1.86,0.5-3.73,1.01-5.59,1.51c16.5,22.5,33,45,49.5,67.5
            c0.92,1.25,2.64,2.05,4.1,1.08c20.67-13.67,41.33-27.33,62-41c-1.21-0.16-2.42-0.31-3.64-0.47c13.33,14.67,26.67,29.33,40,44
            c1.29,1.42,3.8,1.02,4.71-0.61c5.85-10.45,11.46-21.05,16.9-31.72c7.65-15.02,16.34-30.75,20.58-47.17
            c1.31-5.08,1.45-10.47,1.67-15.68c0.36-8.26,0.46-16.53,0.54-24.79c0.19-18.96,0.04-37.93,0.5-56.89
            c0.58-24.31,5.98-47.64,12.62-70.97c0.65-2.27-1.51-4.2-3.69-3.69c-22.78,5.31-46.43,8.46-69.83,6.6
            c-24.47-1.94-48.54-10.31-69.86-22.3c0,1.73,0,3.45,0,5.18c22.89-10.88,47-17.31,71.81-22.17c32.91-6.45,66.14-9.52,99.68-8.42
            c-0.71-1.71-1.41-3.41-2.12-5.12c-4.67,4-9.33,8-14,12c1.41,1.41,2.83,2.83,4.24,4.24c41.12-39.38,101.01-55.88,156.09-39.84
            c13.8,4.02,26.98,9.87,39.27,17.3C422.3,135.09,425.32,129.91,422.01,127.91z"/>
	</g>
</g>


<g id="辅助线">
	<g id="右眼">
		<g>
			<path class="st2" d="M252.7,228.84c8.67-3.33,17.33-6.67,26-10c5.35-2.06,3.03-10.76-2.39-8.68c-8.67,3.33-17.33,6.67-26,10
				C244.95,222.22,247.28,230.92,252.7,228.84L252.7,228.84z"/>
		</g>
	</g>
	<g id="左眼">
		<g>
			<path class="st2" d="M415.5,207c7.67,0,15.33,0,23,0c5.79,0,5.8-9,0-9c-7.67,0-15.33,0-23,0C409.71,198,409.7,207,415.5,207
				L415.5,207z"/>
		</g>
	</g>

	<g id="嘴">
		<g>
			<path class="st2" d="M374.61,224.7c-0.74,2.26-1.2,4.58-1.89,6.84c-0.86,2.82-1.83,3.05-4.75,2.17
				c-3.73-1.12-7.3-2.08-11.04-0.47c-2.93,1.26-4.78,3.75-7.14,5.77c-5.04,4.31-9,1-13.77-2.11c-3.24-2.12-6.25,3.08-3.03,5.18
				c4.33,2.82,9.22,6.59,14.66,4.97c4.92-1.46,7-6.24,11.35-8.18c5.11-2.27,10.61,3.88,15.71,0.64c4.04-2.56,4.36-9.16,5.68-13.23
				C381.59,222.62,375.8,221.04,374.61,224.7L374.61,224.7z"/>
		</g>
	</g>

	<ellipse id="腮红_右" class="st5" cx="255.5" cy="282.5" rx="22.5" ry="23.5"/>
	<ellipse id="腮红_左" class="st5" cx="452.5" cy="260" rx="16.5" ry="21"/>

	<g id="左手">
		<path class="st3" d="M322.5,490.5c22.35,37.35,37.01,54.68,44,52c5.6-2.15,6.27-17.15,2-45"/>
		<g>
			<path class="st4" d="M318.61,492.77c7.94,13.23,16.13,26.42,25.71,38.55c4.52,5.72,10.31,13.36,17.69,15.5
				c21.56,6.26,12.01-42.63,10.82-50.52c-0.86-5.71-9.53-3.28-8.68,2.39c1.67,11.1,3.89,23.36,2.24,34.61
				c-0.19,1.26-0.43,2.7-0.92,3.88c-0.34,0.82-0.86,1.13-0.87,1.25c0.05-0.42,0.8,0.04,0.21-0.19c-0.88-0.34-0.86-0.22-2-0.91
				c-5.81-3.55-10.35-9.94-14.34-15.29c-8.05-10.8-15.16-22.29-22.09-33.83C323.41,483.27,315.62,487.79,318.61,492.77
				L318.61,492.77z"/>
		</g>
	</g>
	<g id="右手">
		<path class="st3" d="M399.5,501.5c3.82,20.42,8.15,30.75,13,31c6.94,0.35,14.94-19.98,24-61"/>
		<g>
			<path class="st4" d="M395.16,502.7c1.51,7.91,9.24,47.23,24.88,30.64c4.99-5.29,7.57-13.05,9.9-19.77
				c4.62-13.32,7.84-27.13,10.9-40.87c1.25-5.64-7.42-8.05-8.68-2.39c-2.56,11.53-5.29,23.04-8.77,34.33
				c-2.08,6.75-4.25,13.8-7.96,19.86c-0.76,1.24-2.37,3.06-2.72,3.38c-0.51,0.46-0.21,0.12-0.21,0.12c0.38,0.65,0-0.25-0.36-0.76
				c-5.28-7.46-6.64-18.21-8.3-26.94C402.76,494.62,394.08,497.03,395.16,502.7L395.16,502.7z"/>
		</g>
	</g>

	<g id="左脚">
		<g>
			<path class="st4" d="M272.39,469.77c8.77-13.4,17.61-26.94,27.79-39.33c2.42-2.95,4.93-5.9,7.76-8.47
				c1.06-0.96,1.37-1.17,1.84-1.51c0.31-0.23,0.68-0.38,0.99-0.6c0.12-0.09,0.33-0.13,0.45-0.22c-1.65,1.4-0.38-0.12-0.27,0.15
				c0.05,0.13-0.84-0.02-0.87-0.04c-2.23-1-1.41-1.36-1.44,1.27c-0.08,5.95-1.85,11.98-3.37,17.68
				c-3.98,14.82-9.07,29.43-14.87,43.63c-7.37,18.04-16.42,35.4-26.77,51.91c-3.09,4.92,4.7,9.44,7.77,4.54
				c19.47-31.05,34.64-65.66,43.48-101.29c1.51-6.08,7.37-25.13-3.39-26.58c-5.59-0.75-10.6,5.14-13.91,8.8
				c-12.52,13.84-22.76,29.97-32.95,45.53C261.43,470.09,269.22,474.6,272.39,469.77L272.39,469.77z"/>
		</g>
	</g>

	<path id="背部花纹2" class="st4" d="M180.5,381.5c-1.31,6.54-6,24-2,37c4.92,16,16.12,27.1,13,31c-4,5-16-10-32-27"/>
	<path id="背部花纹1" class="st4" d="M180.5,381.5c17,23,26,31,29,28c3.54-3.54-14.83-14.75-16-30c-1-13-1.13-35.12-1-43"/>

	<path id="左耳_花纹" class="st4" d="M63.5,172.5c12.79,7.24,32.49,16.39,58,21c32.35,5.84,26,2,26,2c-6-3-14.76-13.06-17-22
		c-2-8,4-20,8-24C138.5,149.5,87.82,160.88,63.5,172.5z"/>
	<path id="右耳花纹" class="st4" d="M577.5,101.5c-26-3-82,3-82,3c8,0,22.76,5.58,27,13c4,7,1,20-8,27
		C538.18,130.5,561.78,114.84,577.5,101.5"/>

	<path id="尾巴花纹" class="st4" d="M120.62,437.37c0,0-2.12-39.93-2.12-41.13l36.5,39.07l-4.76,15.94L120.62,437.37z"/>
</g>


</svg>
